HIERARCHY
ROOT Hips
{
	OFFSET 0.00000 0.00000 0.00000
	CHANNELS 6 Xposition Yposition Zposition Zrotation Yrotation Xrotation 
	JOINT LHipJoint
	{
		OFFSET 0 0 0
		CHANNELS 3 Zrotation Yrotation Xrotation
		JOINT LeftHip
		{
			OFFSET 1.28858 -1.83292 1.03970
			CHANNELS 3 Zrotation Yrotation Xrotation
			JOINT LeftKnee
			{
				OFFSET 2.47846 -6.80952 0.00000
				CHANNELS 3 Zrotation Yrotation Xrotation
				JOINT LeftAnkle
				{
					OFFSET 2.75274 -7.56311 0.00000
					CHANNELS 3 Zrotation Yrotation Xrotation
					JOINT LeftToe
					{
						OFFSET 0.12848 -0.35301 1.68223
						CHANNELS 3 Zrotation Yrotation Xrotation
						End Site
						{
							OFFSET 0.00000 -0.00000 0.87311
						}
					}
				}
			}
		}
	}
	JOINT RHipJoint
	{
		OFFSET 0 0 0
		CHANNELS 3 Zrotation Yrotation Xrotation
		JOINT RightHip
		{
			OFFSET -1.31183 -1.83292 1.03970
			CHANNELS 3 Zrotation Yrotation Xrotation
			JOINT RightKnee
			{
				OFFSET -2.44740 -6.72417 0.00000
				CHANNELS 3 Zrotation Yrotation Xrotation
				JOINT RightAnkle
				{
					OFFSET -2.67343 -7.34519 0.00000
					CHANNELS 3 Zrotation Yrotation Xrotation
					JOINT RightToe
					{
						OFFSET -0.16914 -0.46471 1.77626
						CHANNELS 3 Zrotation Yrotation Xrotation
						End Site
						{
							OFFSET -0.00000 -0.00000 0.92777
						}
					}
				}
			}
		}
	}
	JOINT lowerback
	{
		OFFSET 0 0 0
		CHANNELS 3 Zrotation Yrotation Xrotation
		JOINT Chest
		{
			OFFSET 0.01249 2.14252 0.03842
			CHANNELS 3 Zrotation Yrotation Xrotation
			JOINT Chest2
			{
				OFFSET -0.02957 2.14199 -0.03751
				CHANNELS 3 Zrotation Yrotation Xrotation
				JOINT lowerneck
				{
					OFFSET 0 0 0
					CHANNELS 3 Zrotation Yrotation Xrotation
					JOINT Neck
					{
						OFFSET -0.01678 1.65709 -0.05476
						CHANNELS 3 Zrotation Yrotation Xrotation
						JOINT Head
						{
							OFFSET 0.07912 1.58331 -0.11843
							CHANNELS 3 Zrotation Yrotation Xrotation
							End Site
							{
								OFFSET 0.03298 1.73940 -0.04271
							}
						}
					}
				}
				JOINT LeftCollar
				{
					OFFSET 0 0 0
					CHANNELS 3 Zrotation Yrotation Xrotation
					JOINT LeftShoulder
					{
						OFFSET 3.39556 1.16496 0.08673
CHANNELS 3 Zrotation Xrotation Yrotation
						JOINT LeftElbow
						{
OFFSET 0 -5.239100 -0.000000
CHANNELS 3 Zrotation Xrotation Yrotation
							JOINT LeftWrist
							{
OFFSET 0 -3.314670 0.000000
CHANNELS 3 Zrotation Xrotation Yrotation
								JOINT lhand
								{
									OFFSET 0 0 0
CHANNELS 3 Zrotation Xrotation Yrotation
									JOINT LFingers
									{
OFFSET 0 -0.965900 0.000000
CHANNELS 3 Zrotation Xrotation Yrotation
										End Site
										{
OFFSET 0 -0.778730 0.000000
										}
									}
								}
								JOINT LThumb
								{
OFFSET 0 0.000000 0.000000
CHANNELS 3 Zrotation Xrotation Yrotation
									End Site
									{
OFFSET 0 -0.790620 0.790620
									}
								}
							}
						}
					}
				}
				JOINT RightCollar
				{
					OFFSET 0 0 0
					CHANNELS 3 Zrotation Yrotation Xrotation
					JOINT RightShoulder
					{
						OFFSET -3.27193 1.31331 0.33940
CHANNELS 3 Zrotation Xrotation Yrotation
						JOINT RightElbow
						{
OFFSET 0 -5.302520 0.000000
CHANNELS 3 Zrotation Xrotation Yrotation
							JOINT RightWrist
							{
OFFSET 0 -3.678750 0.000000
CHANNELS 3 Zrotation Xrotation Yrotation
								JOINT rhand
								{
									OFFSET 0 0 0
CHANNELS 3 Zrotation Xrotation Yrotation
									JOINT RFingers
									{
OFFSET 0 -0.594810 0.000000
CHANNELS 3 Zrotation Xrotation Yrotation
										End Site
										{
OFFSET 0 -0.479550 0.000000
										}
									}
								}
								JOINT RThumb
								{
OFFSET 0 0.000000 0.000000
CHANNELS 3 Zrotation Xrotation Yrotation
									End Site
									{
OFFSET 0 -0.486870 0.486870
									}
								}
							}
						}
					}
				}
			}
		}
	}
}
MOTION
Frames: 10
Frame Time: 0.008333333333333333
9.581305 16.976511 -11.634999 -409.264715 42.835712 465.540154 0.000000 0.000000 0.000000 50.220597 27.666100 -37.548827 0.189298 -2.782415 -7.674907 4.550751 0.937848 -39.731486 8.894390 16.739213 55.723938 0.000000 0.000000 0.000000 10.971800 3.225472 20.589779 -0.188293 -2.794423 7.706952 7.904639 -45.276928 -4.010973 -4.937246 -13.312378 40.549953 -2.184025 -4.231895 1.600583 -10.578095 -6.092848 -2.091132 -9.677479 -3.101705 -4.065548 2.222466 -7.428633 -2.206022 0.803997 -11.444773 -29.409389 0.654466 -5.597794 -8.946853 0.000000 0.000000 0.000000 153.534718 -48.668469 88.592190 13.407827 -21.879691 2.604681 76.309937 -58.158933 30.152837 0.000000 0.000000 0.000000 -7.125000 0.000000 0.000000 24.668465 -33.626305 36.024324 0.000000 0.000000 0.000000 -128.921227 -28.916340 -67.243270 -24.094098 -35.263450 -7.760815 -43.759840 42.724647 36.836268 0.000000 0.000000 0.000000 7.125000 0.000000 0.000000 -19.310267 75.325262 13.902195
9.633623 17.030767 -11.061415 -408.740182 44.534066 466.450185 0.000000 0.000000 0.000000 71.748464 -18.511727 -17.638406 0.316860 -3.615214 -9.996884 18.539506 -21.331527 -85.460369 9.002904 16.809512 56.100044 0.000000 0.000000 0.000000 9.631085 4.466938 22.836046 -0.196727 -2.855929 7.877856 7.718711 -44.694200 -4.556021 -4.714542 -13.054409 39.573364 -3.380575 -4.398760 2.748926 -10.593649 -6.452162 -2.174953 -8.892266 -3.226376 -4.731739 2.199623 -8.240332 -2.245457 0.577519 -12.750288 -29.246192 0.665722 -6.157836 -8.917571 0.000000 0.000000 0.000000 151.640898 -48.290652 84.431739 14.592639 -23.573254 3.062588 76.611916 -59.938669 30.088351 0.000000 0.000000 0.000000 -7.125000 0.000000 0.000000 24.896072 -33.932274 36.409909 0.000000 0.000000 0.000000 -127.457219 -27.377440 -65.663504 -24.521043 -35.709805 -8.008911 -44.160846 45.396273 36.625785 0.000000 0.000000 0.000000 7.125000 0.000000 0.000000 -20.260347 75.224732 14.556155
9.693223 17.072103 -10.492030 -408.510861 46.393614 467.147691 0.000000 0.000000 0.000000 69.082115 -12.077247 -19.928908 0.100858 -1.980375 -5.453395 13.677082 -12.689233 -71.354059 8.696606 16.608376 55.034681 0.000000 0.000000 0.000000 8.314973 5.517823 24.747467 -0.192943 -2.828491 7.801524 7.486035 -43.918991 -5.429286 -4.440081 -12.723348 38.342618 -4.575405 -4.475992 3.864027 -10.447146 -6.716558 -2.332530 -7.941784 -3.292549 -5.414002 1.369338 -8.944079 -2.143252 1.234936 -13.683008 -29.073284 1.066166 -6.557021 -8.770616 0.000000 0.000000 0.000000 151.450822 -48.115065 83.467005 15.194159 -24.414978 3.306285 76.780910 -59.727889 30.270075 0.000000 0.000000 0.000000 -7.125000 0.000000 0.000000 24.934810 -34.309123 36.491820 0.000000 0.000000 0.000000 -125.585393 -26.204193 -64.521236 -25.537433 -36.745780 -8.610411 -44.600249 48.332204 36.577032 0.000000 0.000000 0.000000 7.125000 0.000000 0.000000 -21.321187 75.309570 15.371284
9.739351 17.107486 -9.965965 -408.102496 48.598094 469.418564 0.000000 0.000000 0.000000 65.869324 -5.006413 -22.389642 0.007953 -0.506455 -1.391913 8.884812 0.961731 -57.573596 8.494142 16.470403 54.322933 0.000000 0.000000 0.000000 7.157365 6.852886 25.208608 -0.162247 -2.593141 7.148081 7.879922 -44.274167 -7.768347 -4.202373 -12.424696 37.251657 -4.809515 -4.504712 3.104909 -10.298289 -6.734554 -2.771327 -7.692262 -3.289909 -5.403091 0.621479 -9.522940 -2.425960 1.742348 -14.423996 -28.669389 1.350642 -6.869029 -8.483562 0.000000 0.000000 0.000000 151.339491 -48.229589 82.574001 15.966696 -25.474459 3.632160 76.994881 -59.519769 30.254845 0.000000 0.000000 0.000000 -7.125000 0.000000 0.000000 25.085601 -34.556743 36.748101 0.000000 0.000000 0.000000 -123.507327 -25.120137 -63.710226 -26.676253 -37.867707 -9.300045 -45.577030 50.958536 36.455374 0.000000 0.000000 0.000000 7.125000 0.000000 0.000000 -23.734027 75.477905 17.236687
9.781786 17.127408 -9.450450 -407.762556 50.895130 471.838549 0.000000 0.000000 0.000000 64.308203 -4.103041 -22.200220 0.001061 0.189625 0.520872 6.770569 5.634634 -51.330283 8.260737 16.307706 53.496555 0.000000 0.000000 0.000000 5.707741 7.912590 25.323839 -0.112879 -2.163018 5.956546 8.342948 -44.813581 -10.157873 -4.299702 -12.548537 37.701839 -4.818603 -4.562495 1.913512 -10.229665 -6.744106 -3.245128 -7.693645 -3.296593 -5.218951 0.836463 -9.919263 -2.928317 1.828499 -14.952097 -28.255054 1.323877 -7.145314 -8.262745 0.000000 0.000000 0.000000 151.643265 -48.226979 81.508307 16.493692 -26.184844 3.861566 77.086714 -59.293022 30.248266 0.000000 0.000000 0.000000 -7.125000 0.000000 0.000000 25.150830 -34.663383 36.858616 0.000000 0.000000 0.000000 -122.007358 -24.433973 -63.369892 -27.085190 -38.260046 -9.551887 -46.826956 52.948888 36.422998 0.000000 0.000000 0.000000 7.125000 0.000000 0.000000 -26.979586 75.815517 19.847301
9.825534 17.128755 -8.941382 -407.398366 53.211932 474.196417 0.000000 0.000000 0.000000 62.981188 -5.027045 -20.925990 0.003728 0.393153 1.080315 6.290673 5.395442 -49.472191 8.382491 16.393384 53.928789 0.000000 0.000000 0.000000 3.873092 8.482524 25.103044 -0.067428 -1.666716 4.585630 8.885321 -45.465140 -13.110605 -4.503178 -12.801109 38.628996 -4.788856 -4.640058 0.751385 -9.976570 -6.788813 -3.813294 -7.509697 -3.320167 -5.134986 0.528847 -10.502243 -2.997804 2.569621 -15.637648 -27.849493 1.615248 -7.514703 -8.018645 0.000000 0.000000 0.000000 150.413567 -47.982201 78.476538 17.316955 -27.272129 4.232410 77.261014 -60.562667 30.626577 0.000000 0.000000 0.000000 -7.125000 0.000000 0.000000 25.109637 -35.222840 36.814453 0.000000 0.000000 0.000000 -120.638120 -23.954523 -62.641387 -27.690507 -38.828725 -9.929395 -47.635390 54.239001 36.517181 0.000000 0.000000 0.000000 7.125000 0.000000 0.000000 -29.254133 76.146886 21.774322
9.872057 17.121022 -8.438004 -406.743891 55.852872 476.672701 0.000000 0.000000 0.000000 62.528712 -9.588501 -17.518441 0.002140 -0.223802 -0.614878 7.492277 2.649993 -53.068968 8.559304 16.515607 54.553177 0.000000 0.000000 0.000000 2.771659 9.468567 24.993930 -0.035471 -1.213013 3.335174 9.328566 -45.836551 -18.068312 -5.056686 -13.445968 41.064392 -4.449380 -4.672657 -0.370513 -9.609956 -6.757113 -4.301691 -7.380084 -3.318949 -5.000244 -0.038938 -10.820858 -3.676183 3.133905 -15.893301 -26.956075 1.790007 -7.657313 -7.497853 0.000000 0.000000 0.000000 149.269086 -47.585452 75.420037 18.217689 -28.435035 4.652437 77.224662 -61.315424 30.694762 0.000000 0.000000 0.000000 -7.125000 0.000000 0.000000 25.056012 -35.240907 36.728480 0.000000 0.000000 0.000000 -118.993103 -23.338369 -61.628905 -28.384329 -39.467700 -10.367048 -48.552948 55.374736 36.322003 0.000000 0.000000 0.000000 7.125000 0.000000 0.000000 -31.715370 76.191357 23.703113
9.923458 17.116788 -7.942319 -405.793756 58.737975 479.168723 0.000000 0.000000 0.000000 62.145623 -18.124187 -12.302565 0.037869 -1.217163 -3.346944 10.292982 -0.248248 -61.895535 8.463462 16.449734 54.215296 0.000000 0.000000 0.000000 2.131455 10.751303 24.948744 -0.017963 -0.859123 2.361231 9.056985 -45.371096 -24.833369 -5.553290 -13.980736 43.160988 -3.965203 -4.671874 -1.204160 -9.195067 -6.709262 -4.751758 -7.258724 -3.315424 -4.997760 0.006308 -10.953457 -3.879915 3.699280 -15.945834 -26.817692 1.937017 -7.742180 -7.368707 0.000000 0.000000 0.000000 150.219696 -47.153812 74.738036 18.118972 -28.308993 4.605605 77.582690 -61.453941 30.564293 0.000000 0.000000 0.000000 -7.125000 0.000000 0.000000 25.357917 -35.562275 37.228779 0.000000 0.000000 0.000000 -118.104713 -23.208517 -61.347118 -28.200370 -39.299679 -10.250487 -48.585118 56.736501 36.568450 0.000000 0.000000 0.000000 7.125000 0.000000 0.000000 -32.015841 76.461236 24.109233
9.976950 17.108518 -7.457354 -404.977245 61.606137 481.271519 0.000000 0.000000 0.000000 60.501489 -27.458080 -6.394224 0.102219 -2.059940 -5.671552 14.042564 -7.159442 -72.724828 8.640783 16.570848 54.839215 0.000000 0.000000 0.000000 1.312667 12.087320 24.891692 -0.008768 -0.602326 1.655110 7.934818 -44.261321 -32.200117 -5.723061 -14.154238 43.859404 -3.520864 -4.621740 -1.765626 -8.725944 -6.617756 -5.156473 -7.036962 -3.287470 -5.085084 0.963335 -10.839607 -4.292361 2.867742 -15.943100 -27.098647 1.527191 -7.714302 -7.553603 0.000000 0.000000 0.000000 150.450326 -46.771797 73.904344 18.182783 -28.390524 4.635821 78.015319 -61.609497 30.210696 0.000000 0.000000 0.000000 -7.125000 0.000000 0.000000 25.810617 -35.782603 37.972427 0.000000 0.000000 0.000000 -117.355342 -23.379631 -61.249657 -27.818103 -38.948222 -10.009191 -48.660407 58.097222 36.757654 0.000000 0.000000 0.000000 7.125000 0.000000 0.000000 -32.405753 76.680971 24.556754
10.026154 17.088990 -6.998825 -404.118836 64.306336 483.140985 0.000000 0.000000 0.000000 56.668476 -37.055198 0.747400 0.182253 -2.743332 -7.565404 18.345198 -9.591156 -85.238481 8.421496 16.420693 54.067056 0.000000 0.000000 0.000000 0.040613 13.048048 24.810323 -0.003088 -0.347096 0.953716 6.374756 -42.606031 -36.593862 -6.224923 -14.640477 45.873424 -3.107430 -4.648380 -2.273081 -8.225605 -6.625755 -5.476893 -6.759617 -3.305400 -5.116248 0.665520 -10.838906 -4.756976 2.898248 -15.860011 -26.691444 1.519736 -7.640416 -7.311115 0.000000 0.000000 0.000000 150.599513 -46.236493 73.493205 18.122213 -28.313210 4.607150 78.412214 -61.666775 30.057523 0.000000 0.000000 0.000000 -7.125000 0.000000 0.000000 26.159268 -36.147180 38.550139 0.000000 0.000000 0.000000 -116.193245 -23.748152 -60.573358 -27.762142 -38.896196 -9.974024 -49.340651 59.331586 37.759942 0.000000 0.000000 0.000000 7.125000 0.000000 0.000000 -35.659173 77.892568 27.998030
